<?xml version="1.0" encoding="UTF-8" standalone="no"?>
<!-- Created with Inkscape (http://www.inkscape.org/) -->

<svg
   version="1.1"
   id="svg1"
   width="991.11987"
   height="119.99933"
   viewBox="0 0 991.11987 119.99933"
   xmlns="http://www.w3.org/2000/svg"
   xmlns:svg="http://www.w3.org/2000/svg">
  <defs
     id="defs1">
    <clipPath
       clipPathUnits="userSpaceOnUse"
       id="clipPath61">
      <path
         d="M 0,181 H 834 V 0 H 0 Z"
         transform="translate(-73.458002,-111.3945)"
         id="path61" />
    </clipPath>
    <clipPath
       clipPathUnits="userSpaceOnUse"
       id="clipPath63">
      <path
         d="M 0,181 H 834 V 0 H 0 Z"
         transform="translate(-152.73728,-47.790004)"
         id="path63" />
    </clipPath>
    <clipPath
       clipPathUnits="userSpaceOnUse"
       id="clipPath65">
      <path
         d="M 0,181 H 834 V 0 H 0 Z"
         transform="translate(-225.27098,-59.726599)"
         id="path65" />
    </clipPath>
    <clipPath
       clipPathUnits="userSpaceOnUse"
       id="clipPath67">
      <path
         d="M 0,181 H 834 V 0 H 0 Z"
         transform="translate(-260.40278,-49.144504)"
         id="path67" />
    </clipPath>
    <clipPath
       clipPathUnits="userSpaceOnUse"
       id="clipPath69">
      <path
         d="M 0,181 H 834 V 0 H 0 Z"
         transform="translate(-326.65141,-59.726599)"
         id="path69" />
    </clipPath>
    <clipPath
       clipPathUnits="userSpaceOnUse"
       id="clipPath71">
      <path
         d="M 0,181 H 834 V 0 H 0 Z"
         transform="translate(-381.71783,-59.726599)"
         id="path71" />
    </clipPath>
    <clipPath
       clipPathUnits="userSpaceOnUse"
       id="clipPath73">
      <path
         d="M 0,181 H 834 V 0 H 0 Z"
         transform="translate(-436.62601,-59.726599)"
         id="path73" />
    </clipPath>
    <clipPath
       clipPathUnits="userSpaceOnUse"
       id="clipPath75">
      <path
         d="M 0,181 H 834 V 0 H 0 Z"
         transform="translate(-467.34084,-47.631799)"
         id="path75" />
    </clipPath>
    <clipPath
       clipPathUnits="userSpaceOnUse"
       id="clipPath77">
      <path
         d="M 0,181 H 834 V 0 H 0 Z"
         transform="translate(-540.27339,-49.700201)"
         id="path77" />
    </clipPath>
    <clipPath
       clipPathUnits="userSpaceOnUse"
       id="clipPath79">
      <path
         d="M 0,181 H 834 V 0 H 0 Z"
         transform="translate(-590.52444,-50.176804)"
         id="path79" />
    </clipPath>
    <clipPath
       clipPathUnits="userSpaceOnUse"
       id="clipPath81">
      <path
         d="M 0,181 H 834 V 0 H 0 Z"
         transform="translate(-641.77052,-59.726599)"
         id="path81" />
    </clipPath>
    <clipPath
       clipPathUnits="userSpaceOnUse"
       id="clipPath83">
      <path
         d="M 0,181 H 834 V 0 H 0 Z"
         transform="translate(-672.48729,-47.631799)"
         id="path83" />
    </clipPath>
    <clipPath
       clipPathUnits="userSpaceOnUse"
       id="clipPath85">
      <path
         d="M 0,181 H 834 V 0 H 0 Z"
         transform="translate(-714.74319,-47.631799)"
         id="path85" />
    </clipPath>
    <clipPath
       clipPathUnits="userSpaceOnUse"
       id="clipPath87">
      <path
         d="M 0,181 H 834 V 0 H 0 Z"
         transform="translate(-788.66994,-56.504899)"
         id="path87" />
    </clipPath>
  </defs>
  <g
     id="layer-MC0"
     transform="translate(-2324.44,-60.000667)">
    <g
       id="g366">
      <path
         id="path60"
         d="M 0,0 C 0.008,0.053 0.021,0.104 0.029,0.157 0.055,0.304 0.069,0.45 0.099,0.596 0.06,0.397 0.03,0.199 0,0 m 15.587,-25.422 c 0.247,-0.198 0.434,-0.338 0.553,-0.427 l 0.059,-0.059 c 6.645,-5.379 10.263,-10.161 10.854,-14.357 0.07,-0.437 0.1,-0.865 0.1,-1.282 0,-0.696 -0.05,-1.362 -0.149,-1.998 -0.414,-2.844 -1.765,-5.16 -4.062,-6.95 -1.321,-1.025 -2.888,-1.81 -4.693,-2.347 -0.602,-0.179 -1.231,-0.327 -1.883,-0.457 -1.174,-0.219 -2.435,-0.357 -3.776,-0.397 -3.114,0.218 -6.004,0.666 -8.694,1.501 -0.435,0.139 -0.86,0.279 -1.283,0.438 -0.71,0.258 -1.4,0.557 -2.071,0.894 -0.335,0.15 -0.66,0.319 -0.976,0.507 -0.227,0.12 -0.453,0.249 -0.67,0.378 -0.444,0.259 -0.878,0.527 -1.301,0.835 -0.01,-0.01 -0.01,-0.01 -0.01,0 -1.084,0.736 -2.12,1.601 -3.135,2.585 -5.472,5.378 -8.735,11.96 -9.741,19.764 -0.237,1.78 -0.355,3.63 -0.355,5.538 v 0.08 c 0,0.616 0.01,1.222 0.039,1.82 v 0.019 c 0.031,0.566 0.059,1.123 0.109,1.671 0.01,0.089 0.019,0.169 0.019,0.248 0.041,0.418 0.088,0.824 0.138,1.232 0.021,0.19 0.04,0.369 0.07,0.557 0.04,0.299 0.088,0.607 0.137,0.895 0.03,0.229 0.07,0.457 0.109,0.676 0.009,0.07 0.03,0.149 0.049,0.219 1.33,7.058 4.684,12.984 10.037,17.785 2.662,2.397 5.629,4.335 8.903,5.846 -0.01,-0.02 -0.03,-0.04 -0.04,-0.059 h 0.01 c 0.009,0.009 0.02,0.009 0.03,0.019 h 0.011 c 0,0 0,-0.01 -0.011,-0.01 C 3.737,9.405 3.51,9.058 3.294,8.709 2.711,7.744 2.179,6.76 1.725,5.756 1.538,5.349 1.37,4.94 1.213,4.533 1.134,4.324 1.055,4.115 0.986,3.917 0.906,3.709 0.849,3.5 0.779,3.301 0.68,3.022 0.603,2.754 0.532,2.476 0.32,1.703 0.156,0.93 0.029,0.157 c -0.056,-0.33 -0.116,-0.661 -0.157,-0.992 -0.088,-0.736 -0.129,-1.481 -0.129,-2.228 0,-0.288 0.01,-0.566 0.041,-0.855 0.01,-0.188 0.029,-0.377 0.058,-0.565 0.03,-0.249 0.05,-0.497 0.11,-0.746 0.038,-0.249 0.088,-0.498 0.147,-0.755 0.236,-1.005 0.591,-2.039 1.054,-3.093 2.208,-4.961 7.011,-10.408 14.434,-16.345 m -3.303,21.077 c -0.147,0.407 -0.255,0.816 -0.355,1.233 0.11,-0.417 0.217,-0.835 0.355,-1.233 m 29.548,23.573 c -0.227,1.69 -1.164,2.932 -2.81,3.737 -0.019,0.02 -0.039,0.04 -0.059,0.051 -0.423,0.277 -0.896,0.526 -1.44,0.725 0.494,-0.188 0.937,-0.418 1.331,-0.685 0.021,-0.011 0.042,-0.031 0.059,-0.04 1.656,-0.816 2.594,-2.079 2.791,-3.788 -0.218,1.69 -1.153,2.932 -2.791,3.737 -0.017,0.02 -0.038,0.04 -0.059,0.051 -1.212,0.814 -2.888,1.311 -5.038,1.51 -0.305,0.021 -0.621,0.05 -0.946,0.061 -0.346,0.01 -0.7,0.018 -1.064,0.018 -0.789,0 -1.588,-0.039 -2.366,-0.098 -0.72,0.01 -1.401,0.05 -2.199,0.05 -2.613,0 -5.186,-0.14 -7.71,-0.409 C 19.107,24.1 18.684,24.05 18.259,23.999 14.493,23.513 10.815,22.728 7.237,21.633 6.449,21.396 5.668,21.146 4.91,20.888 4.338,20.688 3.776,20.49 3.214,20.271 2.84,20.132 2.465,19.982 2.101,19.834 1.607,19.645 1.124,19.445 0.651,19.228 0.246,19.059 -0.148,18.88 -0.541,18.7 c -0.622,-0.287 -1.233,-0.587 -1.834,-0.894 -0.148,-0.079 -0.296,-0.16 -0.436,-0.239 -0.215,-0.11 -0.432,-0.218 -0.65,-0.347 -0.463,-0.26 -0.916,-0.518 -1.369,-0.786 -0.03,0 -0.06,-0.02 -0.09,-0.049 -0.463,-0.28 -0.927,-0.558 -1.379,-0.846 -0.985,-0.626 -1.943,-1.302 -2.869,-1.998 -6.261,-4.743 -10.975,-10.142 -14.148,-16.195 -1.027,-1.979 -1.893,-4.017 -2.583,-6.125 -0.415,-1.262 -0.76,-2.544 -1.056,-3.857 0.287,1.313 0.631,2.595 1.056,3.857 0.679,2.128 1.548,4.185 2.583,6.174 2.178,4.166 5.087,8.013 8.726,11.562 -3.688,-3.549 -6.636,-7.426 -8.835,-11.611 -2.159,-4.127 -3.568,-8.55 -4.239,-13.253 -0.306,-2.148 -0.464,-4.335 -0.464,-6.591 0,-2.556 0.177,-5.021 0.542,-7.407 0.602,-3.996 1.696,-7.755 3.314,-11.283 1.883,-4.038 4.417,-7.746 7.63,-11.136 0.227,-0.258 0.453,-0.507 0.69,-0.755 0.376,-0.389 0.76,-0.767 1.153,-1.134 0.01,-0.01 0.021,-0.029 0.041,-0.04 5.579,-5.626 12.697,-9.783 19.875,-10.826 0.149,-0.03 0.286,-0.05 0.415,-0.07 0.136,-0.03 0.284,-0.04 0.424,-0.06 0.521,-0.06 1.034,-0.109 1.557,-0.139 h 0.019 c 0.158,-0.01 0.317,0 0.474,-0.01 0.089,0 0.168,-0.01 0.247,-0.01 h 0.028 c 12.295,-0.497 23.327,6.104 28.187,16.205 0.03,0.07 0.07,0.14 0.1,0.199 1.173,2.476 1.972,5.16 2.328,7.993 0.046,0.557 0.067,1.115 0.067,1.681 0,6.442 -5.55,14.315 -16.632,23.632 -0.947,0.755 -1.656,1.361 -2.148,1.76 -1.787,1.51 -3.275,2.903 -4.448,4.185 -0.138,0.139 -0.266,0.268 -0.375,0.407 -0.247,0.269 -0.472,0.527 -0.67,0.785 -0.118,0.129 -0.216,0.249 -0.305,0.378 -0.11,0.12 -0.197,0.248 -0.286,0.378 -0.266,0.358 -0.503,0.696 -0.71,1.035 -0.306,0.526 -0.582,1.073 -0.809,1.639 -0.039,0.09 -0.078,0.179 -0.108,0.27 -0.365,0.954 -0.621,1.958 -0.749,3.011 -0.07,0.567 -0.109,1.144 -0.109,1.74 0,0.508 0.02,1.005 0.07,1.491 0.304,3.4 1.754,6.125 4.337,8.162 2.978,2.377 7.079,3.56 12.304,3.56 0.67,0 1.33,-0.04 1.99,-0.099 0.415,-0.061 0.819,-0.12 1.214,-0.199 2.564,-0.488 4.98,-1.253 7.218,-2.286 1.065,1.769 1.832,3.3 2.325,4.572 0.396,0.994 0.642,1.88 0.74,2.654 0.041,0.239 0.06,0.478 0.06,0.696 0,0.259 -0.019,0.507 -0.04,0.747"
         style="fill:#d4aa00;fill-opacity:1;fill-rule:nonzero;stroke:none"
         transform="matrix(1.3333333,0,0,-1.3333333,2361.944,92.807333)"
         clip-path="url(#clipPath61)" />
      <path
         id="path62"
         d="m 0,0 c -4.111,1.194 -7.414,2.746 -9.907,4.655 l 4.376,9.709 c 2.387,-1.751 5.225,-3.156 8.515,-4.217 3.289,-1.062 6.578,-1.592 9.867,-1.592 3.661,0 6.367,0.544 8.117,1.632 1.751,1.085 2.626,2.532 2.626,4.336 0,1.326 -0.517,2.427 -1.551,3.303 -1.035,0.876 -2.362,1.578 -3.979,2.11 -1.619,0.529 -3.807,1.113 -6.565,1.751 -4.245,1.005 -7.719,2.013 -10.425,3.022 -2.706,1.008 -5.027,2.627 -6.963,4.854 -1.937,2.228 -2.904,5.199 -2.904,8.913 0,3.235 0.875,6.169 2.626,8.793 1.75,2.626 4.389,4.709 7.918,6.249 3.527,1.536 7.838,2.306 12.931,2.306 3.554,0 7.028,-0.425 10.424,-1.273 3.394,-0.848 6.367,-2.069 8.913,-3.661 L 30.04,41.103 c -5.145,2.916 -10.292,4.376 -15.437,4.376 -3.609,0 -6.275,-0.584 -7.999,-1.75 -1.724,-1.168 -2.585,-2.707 -2.585,-4.617 0,-1.909 0.994,-3.329 2.984,-4.257 1.99,-0.928 5.025,-1.844 9.111,-2.745 4.244,-1.007 7.719,-2.017 10.425,-3.024 2.706,-1.007 5.025,-2.601 6.963,-4.774 1.936,-2.176 2.905,-5.121 2.905,-8.833 0,-3.183 -0.889,-6.088 -2.666,-8.713 C 31.962,4.138 29.297,2.057 25.743,0.518 22.188,-1.021 17.865,-1.79 12.772,-1.79 8.368,-1.79 4.111,-1.192 0,0"
         style="fill:#d4aa00;fill-opacity:1;fill-rule:nonzero;stroke:none"
         transform="matrix(1.3333333,0,0,-1.3333333,2467.6497,177.61333)"
         clip-path="url(#clipPath63)" />
      <path
         id="path64"
         d="m 0,0 c 2.069,2.149 3.103,5.026 3.103,8.634 0,3.607 -1.034,6.487 -3.103,8.636 -2.069,2.147 -4.669,3.222 -7.799,3.222 -3.183,0 -5.809,-1.075 -7.877,-3.222 -2.07,-2.149 -3.104,-5.029 -3.104,-8.636 0,-3.608 1.034,-6.485 3.104,-8.634 2.068,-2.148 4.694,-3.222 7.877,-3.222 3.13,0 5.73,1.074 7.799,3.222 M 15.279,30.042 V -12.771 H 3.422 v 4.933 c -3.078,-3.713 -7.534,-5.571 -13.369,-5.571 -4.032,0 -7.679,0.902 -10.942,2.706 -3.263,1.804 -5.822,4.377 -7.679,7.721 -1.858,3.341 -2.786,7.213 -2.786,11.616 0,4.404 0.928,8.276 2.786,11.62 1.857,3.342 4.416,5.915 7.679,7.718 3.263,1.802 6.91,2.705 10.942,2.705 5.463,0 9.734,-1.724 12.812,-5.172 v 4.537 z"
         style="fill:#d4aa00;fill-opacity:1;fill-rule:nonzero;stroke:none"
         transform="matrix(1.3333333,0,0,-1.3333333,2564.3613,161.69787)"
         clip-path="url(#clipPath65)" />
      <path
         id="path66"
         d="m 0,0 c -3.635,1.881 -6.473,4.495 -8.515,7.837 -2.043,3.343 -3.064,7.136 -3.064,11.379 0,4.246 1.021,8.039 3.064,11.381 2.042,3.341 4.88,5.954 8.515,7.839 3.633,1.881 7.732,2.823 12.294,2.823 4.509,0 8.449,-0.942 11.818,-2.823 3.368,-1.885 5.821,-4.578 7.361,-8.079 l -9.629,-5.172 c -2.228,3.926 -5.438,5.889 -9.629,5.889 -3.236,0 -5.916,-1.062 -8.037,-3.182 -2.122,-2.124 -3.183,-5.014 -3.183,-8.676 0,-3.659 1.061,-6.552 3.183,-8.673 C 6.299,8.42 8.979,7.36 12.215,7.36 c 4.243,0 7.453,1.962 9.629,5.889 L 31.473,7.996 C 29.933,4.602 27.48,1.949 24.112,0.039 20.743,-1.871 16.803,-2.827 12.294,-2.827 7.732,-2.827 3.633,-1.886 0,0"
         style="fill:#d4aa00;fill-opacity:1;fill-rule:nonzero;stroke:none"
         transform="matrix(1.3333333,0,0,-1.3333333,2611.2037,175.80733)"
         clip-path="url(#clipPath67)" />
      <path
         id="path68"
         d="m 0,0 c 2.069,2.149 3.103,5.026 3.103,8.634 0,3.607 -1.034,6.487 -3.103,8.636 -2.069,2.147 -4.669,3.222 -7.798,3.222 -3.184,0 -5.81,-1.075 -7.879,-3.222 -2.069,-2.149 -3.104,-5.029 -3.104,-8.636 0,-3.608 1.035,-6.485 3.104,-8.634 2.069,-2.148 4.695,-3.222 7.879,-3.222 3.129,0 5.729,1.074 7.798,3.222 M 15.278,30.042 V -12.771 H 3.422 v 4.933 c -3.078,-3.713 -7.535,-5.571 -13.369,-5.571 -4.033,0 -7.679,0.902 -10.942,2.706 -3.263,1.804 -5.823,4.377 -7.68,7.721 -1.858,3.341 -2.785,7.213 -2.785,11.616 0,4.404 0.927,8.276 2.785,11.62 1.857,3.342 4.417,5.915 7.68,7.718 3.263,1.802 6.909,2.705 10.942,2.705 5.463,0 9.735,-1.724 12.812,-5.172 v 4.537 z"
         style="fill:#d4aa00;fill-opacity:1;fill-rule:nonzero;stroke:none"
         transform="matrix(1.3333333,0,0,-1.3333333,2699.5352,161.69787)"
         clip-path="url(#clipPath69)" />
      <path
         id="path70"
         d="m 0,0 c 2.069,2.149 3.104,5.026 3.104,8.634 0,3.607 -1.035,6.487 -3.104,8.636 -2.069,2.147 -4.669,3.222 -7.799,3.222 -3.182,0 -5.809,-1.075 -7.878,-3.222 -2.068,-2.149 -3.103,-5.029 -3.103,-8.636 0,-3.608 1.035,-6.485 3.103,-8.634 2.069,-2.148 4.696,-3.222 7.878,-3.222 3.13,0 5.73,1.074 7.799,3.222 M 15.278,46.273 V -12.771 H 3.421 v 4.933 c -3.077,-3.713 -7.533,-5.571 -13.368,-5.571 -4.032,0 -7.679,0.902 -10.942,2.706 -3.262,1.804 -5.823,4.377 -7.679,7.721 -1.858,3.341 -2.786,7.213 -2.786,11.616 0,4.404 0.928,8.276 2.786,11.62 1.856,3.342 4.417,5.915 7.679,7.718 3.263,1.802 6.91,2.705 10.942,2.705 5.464,0 9.735,-1.724 12.812,-5.172 v 20.768 z"
         style="fill:#d4aa00;fill-opacity:1;fill-rule:nonzero;stroke:none"
         transform="matrix(1.3333333,0,0,-1.3333333,2772.9571,161.69787)"
         clip-path="url(#clipPath71)" />
      <path
         id="path72"
         d="m 0,0 c 2.068,2.149 3.104,5.026 3.104,8.634 0,3.607 -1.036,6.487 -3.104,8.636 -2.069,2.147 -4.671,3.222 -7.8,3.222 -3.183,0 -5.81,-1.075 -7.877,-3.222 -2.069,-2.149 -3.103,-5.029 -3.103,-8.636 0,-3.608 1.034,-6.485 3.103,-8.634 2.067,-2.148 4.694,-3.222 7.877,-3.222 3.129,0 5.731,1.074 7.8,3.222 M 15.278,30.042 V -12.771 H 3.421 v 4.933 c -3.076,-3.713 -7.534,-5.571 -13.368,-5.571 -4.034,0 -7.681,0.902 -10.942,2.706 -3.264,1.804 -5.824,4.377 -7.68,7.721 -1.857,3.341 -2.785,7.213 -2.785,11.616 0,4.404 0.928,8.276 2.785,11.62 1.856,3.342 4.416,5.915 7.68,7.718 3.261,1.802 6.908,2.705 10.942,2.705 5.464,0 9.734,-1.724 12.813,-5.172 v 4.537 z"
         style="fill:#d4aa00;fill-opacity:1;fill-rule:nonzero;stroke:none"
         transform="matrix(1.3333333,0,0,-1.3333333,2846.168,161.69787)"
         clip-path="url(#clipPath73)" />
      <path
         id="path74"
         d="m 0,0 c -3.396,0.875 -6.101,1.976 -8.116,3.302 l 4.137,8.913 C -2.07,10.994 0.237,10 2.945,9.23 5.649,8.46 8.302,8.076 10.902,8.076 c 5.251,0 7.878,1.302 7.878,3.901 0,1.219 -0.716,2.094 -2.147,2.625 -1.433,0.529 -3.635,0.982 -6.606,1.354 -3.503,0.529 -6.392,1.139 -8.674,1.828 -2.281,0.69 -4.256,1.91 -5.927,3.661 -1.672,1.751 -2.507,4.244 -2.507,7.483 0,2.705 0.781,5.102 2.346,7.199 1.564,2.097 3.846,3.727 6.843,4.895 2.997,1.166 6.539,1.749 10.623,1.749 3.027,0 6.037,-0.33 9.034,-0.994 2.997,-0.663 5.479,-1.579 7.44,-2.745 L 25.067,30.2 c -3.766,2.12 -7.877,3.183 -12.336,3.183 -2.652,0 -4.641,-0.373 -5.968,-1.114 -1.325,-0.745 -1.991,-1.699 -1.991,-2.865 0,-1.328 0.719,-2.256 2.152,-2.786 1.432,-0.531 3.714,-1.035 6.844,-1.512 3.499,-0.585 6.365,-1.208 8.595,-1.869 2.227,-0.665 4.163,-1.87 5.808,-3.622 1.643,-1.749 2.466,-4.191 2.466,-7.32 0,-2.654 -0.795,-5.014 -2.385,-7.081 C 26.658,3.144 24.337,1.539 21.288,0.396 18.236,-0.742 14.614,-1.314 10.427,-1.314 6.87,-1.314 3.396,-0.877 0,0"
         style="fill:#d4aa00;fill-opacity:1;fill-rule:nonzero;stroke:none"
         transform="matrix(1.3333333,0,0,-1.3333333,2887.1211,177.82427)"
         clip-path="url(#clipPath75)" />
      <path
         id="path76"
         d="m 0,0 c -4.59,2.467 -8.197,5.889 -10.823,10.265 -2.626,4.379 -3.941,9.324 -3.941,14.841 0,5.518 1.315,10.465 3.941,14.842 2.626,4.377 6.233,7.799 10.823,10.265 4.587,2.467 9.747,3.701 15.479,3.701 4.824,0 9.189,-0.848 13.087,-2.547 3.9,-1.697 7.176,-4.138 9.829,-7.319 l -8.277,-7.641 c -3.765,4.35 -8.433,6.526 -14.006,6.526 -3.448,0 -6.525,-0.757 -9.229,-2.269 -2.707,-1.511 -4.816,-3.62 -6.325,-6.327 -1.514,-2.705 -2.27,-5.781 -2.27,-9.231 0,-3.448 0.756,-6.523 2.27,-9.23 1.509,-2.705 3.618,-4.814 6.325,-6.328 2.704,-1.51 5.781,-2.267 9.229,-2.267 5.573,0 10.241,2.202 14.006,6.607 l 8.277,-7.64 C 35.742,3.011 32.453,0.543 28.528,-1.153 24.602,-2.852 20.225,-3.7 15.396,-3.7 9.718,-3.7 4.587,-2.468 0,0"
         style="fill:#d4aa00;fill-opacity:1;fill-rule:nonzero;stroke:none"
         transform="matrix(1.3333333,0,0,-1.3333333,2984.3645,175.0664)"
         clip-path="url(#clipPath77)" />
      <path
         id="path78"
         d="m 0,0 c -2.706,2.574 -4.06,6.221 -4.06,10.943 v 44.88 H 8.354 V 11.659 c 0,-1.805 0.464,-3.196 1.394,-4.177 0.927,-0.983 2.241,-1.472 3.94,-1.472 0.634,0 1.285,0.079 1.948,0.238 0.662,0.159 1.18,0.345 1.552,0.557 l 0.556,-9.628 C 15.678,-3.513 13.528,-3.859 11.301,-3.859 6.472,-3.859 2.705,-2.573 0,0"
         style="fill:#d4aa00;fill-opacity:1;fill-rule:nonzero;stroke:none"
         transform="matrix(1.3333333,0,0,-1.3333333,3051.3659,174.43093)"
         clip-path="url(#clipPath79)" />
      <path
         id="path80"
         d="m 0,0 c 2.07,2.149 3.104,5.026 3.104,8.634 0,3.607 -1.034,6.487 -3.104,8.636 -2.067,2.147 -4.667,3.222 -7.798,3.222 -3.181,0 -5.809,-1.075 -7.876,-3.222 -2.07,-2.149 -3.106,-5.029 -3.106,-8.636 0,-3.608 1.036,-6.485 3.106,-8.634 2.067,-2.148 4.695,-3.222 7.876,-3.222 3.131,0 5.731,1.074 7.798,3.222 M 15.28,30.042 V -12.771 H 3.423 v 4.933 c -3.078,-3.713 -7.534,-5.571 -13.37,-5.571 -4.031,0 -7.677,0.902 -10.942,2.706 -3.261,1.804 -5.82,4.377 -7.678,7.721 -1.857,3.341 -2.784,7.213 -2.784,11.616 0,4.404 0.927,8.276 2.784,11.62 1.858,3.342 4.417,5.915 7.678,7.718 3.265,1.802 6.911,2.705 10.942,2.705 5.464,0 9.735,-1.724 12.813,-5.172 v 4.537 z"
         style="fill:#d4aa00;fill-opacity:1;fill-rule:nonzero;stroke:none"
         transform="matrix(1.3333333,0,0,-1.3333333,3119.694,161.69787)"
         clip-path="url(#clipPath81)" />
      <path
         id="path82"
         d="m 0,0 c -3.396,0.875 -6.101,1.976 -8.115,3.302 l 4.137,8.913 C -2.068,10.994 0.238,10 2.946,9.23 5.65,8.46 8.302,8.076 10.904,8.076 c 5.249,0 7.877,1.302 7.877,3.901 0,1.219 -0.718,2.094 -2.151,2.625 -1.432,0.529 -3.634,0.982 -6.603,1.354 -3.501,0.529 -6.392,1.139 -8.673,1.828 -2.284,0.69 -4.257,1.91 -5.928,3.661 -1.674,1.751 -2.508,4.244 -2.508,7.483 0,2.705 0.782,5.102 2.348,7.199 1.564,2.097 3.846,3.727 6.843,4.895 2.997,1.166 6.538,1.749 10.622,1.749 3.028,0 6.038,-0.33 9.034,-0.994 2.997,-0.663 5.477,-1.579 7.44,-2.745 L 25.067,30.2 c -3.768,2.12 -7.879,3.183 -12.336,3.183 -2.651,0 -4.641,-0.373 -5.966,-1.114 -1.327,-0.745 -1.991,-1.699 -1.991,-2.865 0,-1.328 0.718,-2.256 2.151,-2.786 1.431,-0.531 3.713,-1.035 6.844,-1.512 3.5,-0.585 6.365,-1.208 8.592,-1.869 2.228,-0.665 4.165,-1.87 5.81,-3.622 1.642,-1.749 2.466,-4.191 2.466,-7.32 0,-2.654 -0.795,-5.014 -2.385,-7.081 C 26.657,3.144 24.337,1.539 21.288,0.396 18.237,-0.742 14.616,-1.314 10.425,-1.314 6.87,-1.314 3.394,-0.877 0,0"
         style="fill:#d4aa00;fill-opacity:1;fill-rule:nonzero;stroke:none"
         transform="matrix(1.3333333,0,0,-1.3333333,3160.6497,177.82427)"
         clip-path="url(#clipPath83)" />
      <path
         id="path84"
         d="m 0,0 c -3.396,0.875 -6.101,1.976 -8.116,3.302 l 4.137,8.913 C -2.07,10.994 0.238,10 2.945,9.23 5.649,8.46 8.302,8.076 10.902,8.076 c 5.251,0 7.877,1.302 7.877,3.901 0,1.219 -0.716,2.094 -2.148,2.625 -1.434,0.529 -3.635,0.982 -6.605,1.354 -3.502,0.529 -6.392,1.139 -8.674,1.828 -2.283,0.69 -4.256,1.91 -5.928,3.661 -1.673,1.751 -2.506,4.244 -2.506,7.483 0,2.705 0.781,5.102 2.346,7.199 1.565,2.097 3.846,3.727 6.843,4.895 2.998,1.166 6.539,1.749 10.624,1.749 3.025,0 6.036,-0.33 9.033,-0.994 2.998,-0.663 5.475,-1.579 7.439,-2.745 L 25.066,30.2 c -3.768,2.12 -7.88,3.183 -12.335,3.183 -2.652,0 -4.641,-0.373 -5.967,-1.114 -1.328,-0.745 -1.991,-1.699 -1.991,-2.865 0,-1.328 0.717,-2.256 2.151,-2.786 1.432,-0.531 3.711,-1.035 6.843,-1.512 3.5,-0.585 6.364,-1.208 8.592,-1.869 2.229,-0.665 4.165,-1.87 5.812,-3.622 1.642,-1.749 2.466,-4.191 2.466,-7.32 0,-2.654 -0.796,-5.014 -2.387,-7.081 C 26.657,3.144 24.336,1.539 21.287,0.396 18.235,-0.742 14.614,-1.314 10.423,-1.314 6.87,-1.314 3.394,-0.877 0,0"
         style="fill:#d4aa00;fill-opacity:1;fill-rule:nonzero;stroke:none"
         transform="matrix(1.3333333,0,0,-1.3333333,3216.9909,177.82427)"
         clip-path="url(#clipPath85)" />
      <path
         id="path86"
         d="m 0,0 v -9.549 h -38.197 v 7.479 l 8.513,10.027 h -5.809 v 8.276 h 12.81 l 6.289,7.481 h -21.248 v 9.55 h 36.925 v -7.483 l -8.116,-9.627 h 6.046 V 7.877 h -13.05 L -22.521,0 Z"
         style="fill:#d4aa00;fill-opacity:1;fill-rule:nonzero;stroke:none"
         transform="matrix(1.3333333,0,0,-1.3333333,3315.5599,165.99347)"
         clip-path="url(#clipPath87)" />
    </g>
  </g>
</svg>
